# xmcd
#
# Track frame offsets: 
#        151
#        6375
#        11993
#        21232
#        29252
#        33929
#        42260
#        55070
#        63586
#        69079
#        76491
#        88389
#        96105
#        105432
#        113444
#        120901
#        128430
#        132769
#        139061
#        145869
#        156774
#        168234
#        174646
#        184577
#        192844
#
# Disc length: 2628 seconds
#
# Revision: 0
# Processed by: cddbd v1.5.2PL0 Copyright (c) Steve Scherf et al.
# Submitted via: ExactAudioCopy v0.95a5
#
DISCID=420a4219
DTITLE=Various Artist - Burnin Up the Strings
DYEAR=2006
DGENRE=Bluegrass
TTITLE0=Red Smiley/Dear Old Dixie
TTITLE1=Tater Tate/Black Eyed Susan
TTITLE2=Reno and Smiley/Natural Bridge Blues
TTITLE3=Hylo Brown/Banjo on the Mountain
TTITLE4=Curly Fox/Chinese Breakdown
TTITLE5=Earl Taylor and Jim McCall/Ragtime Annie
TTITLE6=Bobby Atkins/Pike County Breakdown
TTITLE7=Dale Potter/Fiddle Patch
TTITLE8=The Ritchey Brothers/Down Yonder
TTITLE9=Reno and Harrell/Dill Pickle Rag
TTITLE10=Vassar Clements/Snowflake Breakdown
TTITLE11=Mac Martin/Wheel Hoss
TTITLE12=Bobby Atkins/Flop Eared Mule
TTITLE13=Curly Fox/Paddy on the Turnpike
TTITLE14=Early Taylor/Wildwood Flower
TTITLE15=Hylo Brown/Fireball Mail
TTITLE16=Vassar Clements/Fast Travelin
TTITLE17=Reno and Harrell/I Don't Love Nobody
TTITLE18=Early Taylor and Jim McCall/John Hardy
TTITLE19=Tater Tate/Teetotalers Reel
TTITLE20=Clarence/Steel Guitar Rag
TTITLE21=Jim Greer/Golden Slippers
TTITLE22=Mac Martin/Charlotte Breakdown
TTITLE23=Bob Ensign/Yonder Comes the Sheriff
TTITLE24=Curly Fox/Mississippi Sawyer
EXTD=
EXTT0=
EXTT1=
EXTT2=
EXTT3=
EXTT4=
EXTT5=
EXTT6=
EXTT7=
EXTT8=
EXTT9=
EXTT10=
EXTT11=
EXTT12=
EXTT13=
EXTT14=
EXTT15=
EXTT16=
EXTT17=
EXTT18=
EXTT19=
EXTT20=
EXTT21=
EXTT22=
EXTT23=
EXTT24=
PLAYORDER=
